<svg width="358" height="318" viewBox="0 0 358 318" fill="none" xmlns="http://www.w3.org/2000/svg"><path d="M94.405 302.453s-18.998-19.301-37.711-69.758c-18.713-50.457 24.174-55.699 11.091-111.458C54.703 65.478 84.565 20.859 114.03 8.766c29.463-12.093 51.76-19.599 95.956 32.943 44.195 52.542 48.177 26.688 84.011 37.53 35.834 10.842 38.223 90.489 13.538 115.092-24.686 24.603 9.157 111.339-44.196 116.76-53.353 5.421-168.933-8.638-168.933-8.638Z" fill="#E0D8FF"/><path d="M256.383 308.857c.215.434.409.801.573 1.104.35.64.572.974.572.974 48.227-7.113 33.354-25.256 44.518-34.551 11.165-9.297 7.413-16.527 19.865-18.308 12.452-1.779 38.131-20.929 35.24-29.478-.808-2.393-2.973-4.746-6.073-6.536-.36-.208-.732-.411-1.119-.6-8.131-4.062-21.59-4.364-34.079 6.832-18.165 16.282-21.788 8.688-32.567 16.893-10.781 8.207-18.812 6.953-27.435 28.582-6.763 16.957-1.906 30.171.505 35.088Z" fill="#47737F"/><path d="M355.361 227.895c-1.37-.21-2.758-.269-4.143-.273-1.386-.01-2.771.08-4.152.196-2.763.251-5.504.736-8.212 1.368l-2.024.508-2.002.594-1.002.298-.988.341-1.976.685c-.656.239-1.3.51-1.95.763l-.974.386c-.324.128-.65.254-.967.403l-1.913.859c-.638.286-1.28.565-1.9.891-5.038 2.448-9.841 5.404-14.428 8.676-4.57 3.304-8.905 6.946-13.069 10.787-2.025 1.986-4.094 3.924-6.016 6.021l-1.465 1.545c-.487.518-.986 1.022-1.447 1.565l-2.817 3.206c-.466.537-.947 1.061-1.4 1.61l-1.35 1.655-2.701 3.312c-.229.273-.446.556-.659.842l-.647.852-1.291 1.707-1.286 1.71-.643.855c-.216.284-.429.57-.63.866l-2.456 3.512-1.228 1.755-.614.878-.587.898-2.341 3.596-1.171 1.797-.584.9-.556.919-2.215 3.68-1.108 1.84c-.369.613-.743 1.223-1.086 1.853l-4.196 7.507 4.357-7.402c.354-.622.74-1.224 1.12-1.83l1.141-1.815 2.28-3.631.568-.909.593-.891 1.19-1.78 2.378-3.56.595-.889.623-.868 1.245-1.737 2.49-3.473c6.754-9.166 14.189-17.79 22.392-25.539 4.129-3.838 8.428-7.479 12.96-10.783a106.77 106.77 0 0 1 14.294-8.717c.613-.333 1.247-.617 1.878-.91l1.893-.877c.313-.152.635-.281.957-.412l.963-.396c.644-.26 1.281-.537 1.93-.783l1.957-.705.98-.352.992-.309 1.985-.615 2.007-.534c2.681-.682 5.401-1.221 8.149-1.527 1.374-.144 2.753-.259 4.135-.28 1.381-.033 2.768-.012 4.142.161Z" fill="#fff"/><path d="M263.467 301.432c.277.274.522.502.727.689.435.395.692.59.692.59 35.359-19.133 19.207-28.917 25.42-39.244 6.212-10.33 1.453-14.844 10.597-19.741 9.144-4.896 24.009-26.932 19.573-32.706-1.24-1.618-3.517-2.819-6.37-3.323a14.663 14.663 0 0 0-1.018-.146c-7.319-.832-17.776 2.744-24.52 14.913-9.809 17.698-14.562 12.866-20.758 22.244-6.198 9.38-12.714 10.686-13.785 29.806-.841 14.992 6.314 23.809 9.442 26.918Z" fill="#6A8DC3"/><path d="M320.476 211.019c-1.111.226-2.197.573-3.266.962-1.071.385-2.116.845-3.152 1.326-2.066.976-4.054 2.125-5.98 3.379l-1.43.964-1.391 1.025-.695.513-.674.543-1.348 1.088c-.444.369-.87.76-1.307 1.14l-.651.573c-.217.191-.436.38-.642.584l-1.254 1.204c-.418.401-.841.798-1.235 1.225-3.254 3.313-6.195 6.953-8.889 10.774-2.672 3.841-5.076 7.876-7.296 12.017-1.049 2.105-2.145 4.185-3.086 6.346l-.732 1.607c-.242.536-.497 1.067-.712 1.616l-1.346 3.269c-.22.546-.456 1.086-.664 1.638l-.614 1.659-1.229 3.319c-.106.275-.2.554-.291.835l-.279.84-.556 1.682-.55 1.683-.275.841c-.094.28-.184.561-.263.846l-.988 3.404-.494 1.702-.247.85-.221.859-.879 3.435-.439 1.718-.218.859-.192.866-.759 3.465-.379 1.733c-.127.577-.258 1.153-.36 1.737l-1.299 6.976 1.451-6.941c.112-.58.254-1.154.391-1.728l.412-1.723.822-3.445.204-.862.227-.855.458-1.709.915-3.419.23-.854.257-.846.512-1.691 1.024-3.383c2.844-8.981 6.354-17.736 10.681-26.033 2.194-4.129 4.57-8.153 7.213-11.984a91.242 91.242 0 0 1 8.775-10.768c.387-.43.802-.829 1.213-1.233l1.234-1.212c.202-.206.417-.396.631-.589l.641-.578c.43-.382.85-.777 1.287-1.149l1.328-1.098.664-.548.685-.519 1.373-1.037 1.41-.979c1.892-1.286 3.85-2.47 5.891-3.484 1.023-.5 2.056-.979 3.117-1.386 1.057-.417 2.131-.793 3.236-1.049Z" fill="#fff"/><path d="M239.719 311.318c-.377-.06-.699-.122-.966-.176-.565-.117-.869-.209-.869-.209-7.343-40.968 9.956-33.647 13.911-45.129 3.956-11.483 10.281-10.33 8.345-20.893-1.939-10.562 5.509-36.391 12.585-36.279 1.98.03 4.285 1.171 6.419 3.217.248.237.495.486.736.751 5.127 5.532 8.867 16.367 3.853 29.42-7.291 18.986-.73 19.939-3.979 30.824-3.251 10.887-.226 17.071-13.963 29.716-10.769 9.915-21.807 9.429-26.072 8.758Z" fill="#66B5C2"/><path d="M272.725 208.632c.513 1.056.92 2.167 1.285 3.288.369 1.122.665 2.268.94 3.419.536 2.306.893 4.655 1.134 7.016l.153 1.774.084 1.78.041.889.006.891.01 1.782c-.005.593-.037 1.187-.054 1.78l-.031.891c-.01.296-.018.593-.045.889l-.135 1.776c-.045.592-.084 1.185-.163 1.774-.493 4.725-1.424 9.392-2.644 13.967-1.248 4.569-2.808 9.036-4.56 13.416-.939 2.161-1.832 4.346-2.879 6.452l-.76 1.592c-.256.53-.498 1.067-.779 1.582l-1.634 3.122c-.275.518-.537 1.045-.824 1.556l-.872 1.528-1.743 3.055a16.31 16.31 0 0 1-.449.755l-.462.747-.924 1.493-.928 1.49-.465.744c-.153.25-.309.497-.475.737l-1.954 2.91-.978 1.455-.488.727-.511.71-2.046 2.838-1.023 1.419-.513.709-.534.691-2.142 2.758-1.071 1.379c-.357.459-.71.922-1.086 1.365l-4.453 5.364 4.334-5.467c.367-.45.711-.92 1.059-1.387l1.045-1.399 2.088-2.798.523-.698.505-.714 1.005-1.429 2.01-2.859.502-.715.479-.732.959-1.464 1.917-2.926c5.011-7.872 9.445-16.155 13.03-24.832 1.759-4.351 3.327-8.788 4.585-13.327a96.045 96.045 0 0 0 2.711-13.869c.085-.584.13-1.172.181-1.76l.154-1.764c.031-.294.042-.589.055-.884l.041-.885c.024-.59.062-1.179.074-1.769l.01-1.772.004-.886-.031-.885-.063-1.771-.13-1.767c-.196-2.353-.509-4.699-1.001-7.007a42.771 42.771 0 0 0-.873-3.427c-.336-1.129-.714-2.248-1.201-3.317Z" fill="#fff"/><path d="M92.831 187.443c-.175.395-.334.73-.47 1.006-.287.585-.472.891-.472.891-43.196-4.37-30.628-21.126-40.911-28.946-10.284-7.822-7.212-14.411-18.363-15.49-11.15-1.078-34.72-17.08-32.464-24.808.631-2.163 2.471-4.346 5.164-6.065.313-.201.637-.396.974-.58 7.088-3.947 19.058-4.764 30.591 4.695 16.775 13.756 19.717 6.848 29.617 13.714 9.903 6.867 17.004 5.425 25.484 24.328 6.648 14.82 2.814 26.78.85 31.255Z" fill="#47737F"/><path d="M1.718 119.397c1.212-.243 2.446-.352 3.678-.412 1.234-.064 2.47-.042 3.704.006 2.469.111 4.927.431 7.36.883l1.821.37 1.805.447.902.225.893.264 1.785.529c.592.186 1.175.401 1.764.6l.88.304c.294.101.59.199.876.319l1.736.687c.578.229 1.16.451 1.724.716 4.575 1.974 8.96 4.411 13.166 7.136 4.19 2.755 8.184 5.821 12.033 9.071 1.877 1.686 3.79 3.327 5.579 5.115l1.362 1.317c.452.441.916.869 1.346 1.334l2.626 2.738c.435.46.883.907 1.306 1.377l1.264 1.419 2.527 2.838c.213.234.417.477.618.723l.607.732 1.213 1.467 1.208 1.47.604.735c.203.244.403.49.593.745l2.317 3.027 1.158 1.513.58.756.555.776 2.218 3.105 1.108 1.552.553.778.53.795 2.108 3.186 1.054 1.593c.352.531.707 1.059 1.036 1.606l4.014 6.511-4.154-6.412c-.338-.539-.704-1.059-1.065-1.582l-1.082-1.57-2.165-3.139-.54-.786-.56-.77-1.125-1.536-2.249-3.072-.563-.767-.587-.748-1.173-1.495-2.345-2.991c-6.352-7.885-13.291-15.259-20.88-21.824-3.818-3.249-7.78-6.315-11.937-9.072a94.621 94.621 0 0 0-13.047-7.179c-.559-.271-1.134-.498-1.706-.733l-1.718-.704c-.284-.123-.576-.224-.867-.328l-.872-.313c-.583-.205-1.161-.426-1.747-.619l-1.77-.548-.884-.273-.895-.234-1.79-.468-1.806-.393c-2.413-.499-4.853-.867-7.311-1.028-1.229-.072-2.46-.119-3.692-.081-1.23.027-2.464.102-3.68.312Z" fill="#fff"/><path d="M87.671 168.785c-.269.217-.505.396-.703.543a10.16 10.16 0 0 1-.664.458C56.58 149.529 71.731 142.359 67.1 132.625c-4.63-9.737-.028-13.296-7.719-18.49-7.691-5.192-18.999-26.114-14.576-30.82 1.238-1.319 3.358-2.172 5.93-2.353.299-.021.604-.035.915-.035 6.56-.056 15.527 4.089 20.473 15.506 7.194 16.604 11.818 12.763 16.515 21.655 4.698 8.894 10.365 10.659 9.69 27.711-.527 13.37-7.62 20.52-10.657 22.986Z" fill="#6A8DC3"/><path d="M44.805 83.314c.966.304 1.9.713 2.814 1.157.917.441 1.804.947 2.682 1.47 1.749 1.057 3.414 2.261 5.015 3.552l1.186.988 1.146 1.038.573.52.551.544 1.103 1.09c.362.369.707.755 1.062 1.132l.528.57c.177.189.355.376.52.577l1.01 1.184c.336.395.678.786.99 1.202 2.605 3.24 4.903 6.741 6.967 10.38 2.043 3.654 3.831 7.456 5.448 11.334.752 1.964 1.546 3.91 2.197 5.914l.513 1.492c.168.499.35.993.494 1.499l.915 3.024c.15.505.312 1.006.45 1.514l.404 1.528.807 3.057c.07.254.13.51.187.768l.176.771.35 1.543.345 1.543.172.772c.06.257.116.514.161.774l.588 3.11.293 1.555.147.777.123.782.486 3.127.244 1.564.12.782.096.785.38 3.144.189 1.571c.063.524.13 1.047.171 1.573l.56 6.307-.697-6.29c-.05-.525-.128-1.046-.2-1.568l-.219-1.566-.436-3.131-.108-.783-.128-.78-.261-1.558-.522-3.115-.131-.779-.155-.774-.31-1.548-.621-3.094c-1.76-8.227-4.127-16.317-7.26-24.076-1.594-3.865-3.359-7.654-5.376-11.297a82.347 82.347 0 0 0-6.865-10.364c-.307-.417-.642-.81-.972-1.206l-.99-1.19c-.162-.201-.337-.39-.51-.58l-.52-.573c-.348-.379-.687-.768-1.043-1.139l-1.083-1.097-.543-.548-.564-.524-1.128-1.047-1.167-1c-1.569-1.315-3.204-2.548-4.927-3.637a34.984 34.984 0 0 0-2.646-1.52c-.902-.467-1.823-.9-2.78-1.23Z" fill="#fff"/><path d="M244.448 46.846H93.27c-4.682 0-8.478 3.976-8.478 8.88v251.282c0 4.904 3.796 8.879 8.478 8.879h151.178c4.683 0 8.478-3.975 8.478-8.879V55.726c0-4.904-3.795-8.88-8.478-8.88Z" fill="#1B2E35"/><path d="M230.92 57.67H106.798c-6.105 0-11.055 5.416-11.055 12.098V290.09c0 6.682 4.95 12.099 11.055 12.099H230.92c6.106 0 11.055-5.417 11.055-12.099V69.768c0-6.682-4.949-12.098-11.055-12.098Z" fill="#fff"/><path d="M106.895 210.857H67.803v-.941h38.193v-63.059h58.712v20.392h22.937v-35.922h.899v36.863H163.81v-20.392h-56.915v63.059Z" fill="#CAE0EF"/><path d="M110.954 247.748h73.735v-2.632h-73.735v2.632Zm0 7.449h74.107v-2.632h-74.107v2.632Zm0 7.448h60.058v-2.632h-60.058v2.632Zm0 6.733h94.467v-2.632h-94.467v2.632Zm0 7.448h94.943v-2.632h-94.943v2.632Zm0 7.448h76.945v-2.632h-76.945v2.632Z" fill="#C1E9F4"/><path d="M196.328 66.464h-54.186c-.812 0-1.547-.517-1.869-1.315l-7.402-18.303h72.584l-7.459 18.445c-.288.712-.944 1.173-1.668 1.173Z" fill="#1B2E35"/><path d="M255.19 211.287s-2.489 5.389-5.389 6.134c-2.899.746-10.475-1.461-4.765-6.423 0 0 1.566-.525-.038-2.246-1.605-1.722 7.458-2.924 7.458-2.924l3.8 4.123-1.066 1.336Z" fill="#F9C095"/><path d="m252.542 207.082 2.895 3.727c8.777-5.636 22.039-23.261 23.096-28.002.884-3.96-2.257-11.349-3.313-13.67-.209-.458-.336-.719-.336-.719l-1.126-2.297-12.142 4.684 1.428 2.213 3.411 5.294c-.793 6.473-13.913 28.77-13.913 28.77Z" fill="#F9C095"/><path d="M245.243 304.575s-3.449 2.071-6.176-1.426c0 0-1.37 7.269-7.512 8.447-6.143 1.178-.603 6.247 3.192 5.357 3.795-.891 12.707-1.557 12.707-1.557s1.359-2.721-.982-5.628l-1.229-5.193Zm16.167-8.571s-.823 4.074-5.131 3.872c0 0 4.262 5.914 1.007 11.496-3.255 5.582 4.046 4.634 5.941 1.077 1.895-3.557 7.36-10.96 7.36-10.96s-1.031-2.875-4.661-2.983l-4.516-2.502Z" fill="#000"/><path d="m240.551 290.376 17.004 14.711 6.653-11.614s0-2.322-8.132-13.162-15.525 10.065-15.525 10.065Z" fill="#2A454C"/><path d="M213.961 239.315c-1.193 16.87 14.241 36.626 20.239 43.619v.002a78.678 78.678 0 0 0 2.328 2.611l-1.127 22.676h13.305c17.011-76.529 7.926-115.603 7.926-115.603l-41.931 1.012c-2.219 20.131.739 24.777-.74 45.683Zm19.221 4.644c0-6.193 5.174-17.808 5.174-17.808l.491 34.089s-.891-1.585-1.965-3.885c-1.636-3.5-3.7-8.657-3.7-12.396Z" fill="#385863"/><path d="M234.2 282.934v.002a79.547 79.547 0 0 0 2.328 2.612l2.319-25.307s-.891-1.586-1.966-3.885c-2.252 10.114-2.632 21.433-2.681 26.578Z" fill="#2A454C"/><path d="M176.075 144.753c-.109-.013-2.006-.231-.89 1.811 0 0-1.646.305.506 2.272 2.153 1.965 7.576 1.141 7.678 4.502.099 3.359 17.66 22.433 23.063 20.362 2.797-1.072 5.722-3.859 7.892-6.297a49.86 49.86 0 0 0 3.388-4.24l-6.091-5.561-3.027-2.766-1.524 1.89-2.677 3.315-1.087 1.346s-12.464-10.331-15.717-13.653c-3.254-3.322-5.385-8.594-10.428-9.232 0 0-1.232-.599-.726.738 0 0-1.916-1.983-2.697-1.18-.771.792.565 2.884 1.627 3.771-.253-.184-1.384-.931-1.292.447.098 1.504 1.889 2.42 2.002 2.475Z" fill="#F9C095"/><path d="M204.393 160.041c1.875 2.066 5.404 5.431 9.931 7.361a49.763 49.763 0 0 0 3.388-4.239l-6.091-5.562-4.551-.875-2.677 3.315Zm57.223 10.764 1.428 2.213c5.806.505 9.848-1.866 12.176-3.881-.209-.458-.336-.718-.336-.718l-1.126-2.297-12.142 4.683Z" fill="#F9B180"/><path d="M219.895 131.92c-5.919 4.719-15.985 25.485-15.985 25.485s.893 1.249 1.495 2.215c2.418 3.879 5.148 7.164 8.312 9.11.772.476 3.075-1.783 3.623-1.57l-.53 5.417-4.085 38.85s27.089 8.12 45.675-7.464l.428-34.773 2.128 2.078s11.458-.244 16.373-5.789c0 0-3.604-22.933-11.999-29.03-5.323-3.867-8.904-5.248-12.178-6.59-.988-.406-4.305-.217-4.833-.405-.482-.174-.773-.81-.773-.81s-5.026 5.062-11.018-.202c0 0-14.902 2.098-16.633 3.478Z" fill="#604CAA"/><path d="M234.015 128.847s7.541 8.425 14.311.633c0 0-1.24.039-1.097-3.167.031-.676.048-1.296.055-1.853v-.007c.032-2.082-.06-3.292-.06-3.292l-10.273 2.835s.147 2.271-.522 3.898c-.338.824-1.532.837-2.414.953Z" fill="#F9C095"/><path d="M236.429 127.894c4.36 1.687 10.855-3.434 10.855-3.434v-.007c.032-2.082-.06-3.292-.06-3.292l-10.273 2.835s.147 2.271-.522 3.898Z" fill="#F4B082"/><path d="M231.556 108.713c.041.409.09.821.148 1.236 1.063 7.6.221 16.892 12.057 15.267 4.232-.581 7.578-4.855 9.274-9.829 1.056-3.097 1.472-6.464 1.064-9.38-1.063-7.6-7.625-12.83-14.656-11.684-6.649 1.086-8.592 7.293-7.887 14.39Z" fill="#F9C095"/><path d="M237.687 93.214c11.406 0 21.205.379 21.458 10.528.121 4.857-2.259 5.36-3.654 7.11-1.396 1.75-.978 3.59-.978 3.59-1.095-1.524-3.643-.551-4.383.327-.741.877-.79.398-2.332-4.436-1.058-3.315-3.876-3.133-3.876-3.133.242 1.755 1.691 1.401 1.691 1.401-2.564.548-8.568-3.016-12.758 0-4.19 3.016-4.458-4.891-4.458-4.891-2.501-5.03-5.141-4.966-4.434-7.864.62-2.545 3.183-2.708 5.606-2.024 1.954.551 4.297-.608 8.118-.608Z" fill="#000"/><path d="M249.975 112.726s1.791-2.522 4.302-1.943c2.512.578 3.322 4.066-2.951 8.046l-1.344.971-.007-7.074Z" fill="#F9C095"/><path d="M127.769 170.845h-12.936v74.896h12.936v-74.896Z" fill="#604CAA"/><path d="M118.076 170.845h-3.243v74.896h3.243v-74.896Z" fill="#8570D3"/><path d="M158.767 183.743h-12.936v61.998h12.936v-61.998Z" fill="#604CAA"/><path d="M149.074 183.743h-3.243v61.998h3.243v-61.998Z" fill="#8570D3"/><path d="M174.144 205.981h-12.936v39.76h12.936v-39.76Z" fill="#604CAA"/><path d="M164.451 205.981h-3.243v39.76h3.243v-39.76Z" fill="#8570D3"/><path d="M143.268 151.72h-12.936v94.021h12.936V151.72Z" fill="#604CAA"/><path d="M133.575 151.72h-3.243v94.021h3.243V151.72Z" fill="#8570D3"/><path d="M174.594 127.309h44.184v-2.501h-44.184v2.501Zm0-4.003h38.102v-2.501h-38.102v2.501Z" fill="#E4EDF4"/><path d="M174.593 119.102h6.904v-5.068h-6.904v5.068Z" fill="#F15A4F"/><path d="M184.382 119.102h6.903v-5.068h-6.903v5.068Z" fill="#CE061F"/><path d="M194.169 119.102h6.904v-5.068h-6.904v5.068Z" fill="#CAE0EF"/><path d="M157.692 94.686a72.036 72.036 0 0 1-.159 4.96c-2.089 31.033-24.009 38.727-24.234 38.804l-.002.001c-21.482-11.394-22.384-36.123-21.691-43.428.149-1.573 1.245-2.868 2.72-3.206 11.834-2.713 17.577-8.334 19.497-10.622a.908.908 0 0 1 1.449.056c4.797 6.708 15.562 9.66 20.136 10.645 1.279.275 2.281 1.423 2.284 2.79Z" fill="#385863"/><path d="M157.533 99.646c-2.089 31.033-24.009 38.727-24.234 38.805 20.486-16.245 24.233-38.806 24.233-38.806l.001.001Z" fill="#2A454C"/><path d="m133.497 96.683-.328 1.968c-1.332.056-2.62.365-3.808.892l-1.098-1.634a12.881 12.881 0 0 0-3.773 2.777l1.097 1.635a11.43 11.43 0 0 0-2.09 3.451l-1.88-.343a13.86 13.86 0 0 0-.601 2.342c-.136.812-.198 1.62-.191 2.416l1.88.343c.051 1.396.348 2.743.851 3.989l-1.561 1.149a13.467 13.467 0 0 0 2.653 3.951l1.561-1.149a10.775 10.775 0 0 0 3.295 2.19l-.328 1.969c.714.276 1.461.488 2.235.629.776.142 1.548.207 2.308.201l.327-1.97a10.416 10.416 0 0 0 3.809-.892l1.097 1.634a12.869 12.869 0 0 0 3.773-2.777l-1.097-1.635a11.462 11.462 0 0 0 2.09-3.451l1.88.343a13.93 13.93 0 0 0 .6-2.34c.136-.813.198-1.621.192-2.418l-1.88-.343a11.827 11.827 0 0 0-.851-3.989l1.56-1.148a13.467 13.467 0 0 0-2.653-3.951l-1.56 1.148a10.815 10.815 0 0 0-3.295-2.19l.327-1.968a12.358 12.358 0 0 0-4.541-.83Zm4.536 14.197c-.426 2.559-2.753 4.272-5.198 3.826-2.443-.446-4.08-2.884-3.654-5.443.426-2.561 2.755-4.274 5.198-3.827 2.444.446 4.081 2.882 3.654 5.444Z" fill="#E4EDF4"/><path d="M133.519 118.322c4.35 0 7.875-3.692 7.875-8.247 0-4.556-3.525-8.248-7.875-8.248-4.349 0-7.875 3.692-7.875 8.248 0 4.555 3.526 8.247 7.875 8.247Z" fill="#fff"/><path d="M133.519 116.117c3.187 0 5.77-2.705 5.77-6.042 0-3.338-2.583-6.043-5.77-6.043-3.186 0-5.769 2.705-5.769 6.043 0 3.337 2.583 6.042 5.769 6.042Z" fill="#E4EDF4"/><path d="M133.653 108.01v1.255l.086.037.536.224c.663.287.994.754.994 1.402 0 .417-.141.758-.425 1.025-.284.268-.649.401-1.095.401h-.096v.514h-.23v-.514c-.922-.1-1.383-.512-1.383-1.235 0-.076.008-.181.025-.314l.603-.157a2.138 2.138 0 0 0-.073.497c0 .519.276.802.829.848v-1.409c-.897-.309-1.346-.818-1.346-1.526 0-.855.449-1.322 1.346-1.402v-.411h.229v.391c.957 0 1.435.448 1.435 1.345l-.596.127c.029-.109.044-.208.044-.297 0-.498-.294-.766-.883-.801Zm-.23.02a.354.354 0 0 0-.067-.01c-.323 0-.484.18-.484.541 0 .256.184.46.551.614v-1.145Zm.23 3.963c.41-.064.615-.273.615-.627 0-.301-.205-.531-.615-.692v1.319Z" fill="#385863"/><path d="M299.956 118.935h-21.418V80.974h-90.764v26.196h-.899V80.033h92.562v37.961h20.519v.941Z" fill="#CAE0EF"/><path d="M310.195 135.361c8.738 0 15.822-7.42 15.822-16.572s-7.084-16.571-15.822-16.571c-8.739 0-15.823 7.419-15.823 16.571 0 9.152 7.084 16.572 15.823 16.572Z" fill="#C1E9F4"/><path d="M310.732 117.795h-1.076c-5.119 0-9.268 4.346-9.268 9.707h19.613c0-5.361-4.15-9.707-9.269-9.707Zm-.537-1.487c2.686 0 4.864-2.28 4.864-5.094 0-2.813-2.178-5.094-4.864-5.094-2.687 0-4.864 2.281-4.864 5.094 0 2.814 2.177 5.094 4.864 5.094Z" fill="#1B2E35"/><path d="M63.064 226.656c8.739 0 15.823-7.42 15.823-16.572s-7.084-16.571-15.823-16.571-15.823 7.419-15.823 16.571c0 9.152 7.084 16.572 15.823 16.572Z" fill="#C1E9F4"/><path d="M63.602 209.09h-1.076c-5.119 0-9.269 4.346-9.269 9.707h19.614c0-5.361-4.15-9.707-9.269-9.707Zm-.538-1.487c2.686 0 4.864-2.281 4.864-5.094 0-2.814-2.178-5.094-4.864-5.094s-4.864 2.28-4.864 5.094c0 2.813 2.178 5.094 4.864 5.094Z" fill="#1B2E35"/></svg>